<?xml version="1.0" standalone="no"?>
<!DOCTYPE svg PUBLIC "-//W3C//DTD SVG 20010904//EN"
 "http://www.w3.org/TR/2001/REC-SVG-20010904/DTD/svg10.dtd">
<svg version="1.0" xmlns="http://www.w3.org/2000/svg"
 width="884.000000pt" height="1280.000000pt" viewBox="0 0 884.000000 1280.000000"
 preserveAspectRatio="xMidYMid meet">

<g transform="translate(0.000000,1280.000000) scale(0.100000,-0.100000)"
fill="#28593A" stroke="none">
<path d="M1724 12661 c-50 -23 -112 -93 -120 -138 -17 -88 18 -173 92 -223 28
-18 53 -25 103 -28 78 -4 123 12 171 60 42 41 60 85 60 144 0 146 -167 248
-306 185z"/>
<path d="M230 11765 l0 -895 190 0 190 0 0 24 0 25 43 -24 c23 -13 69 -31 102
-39 247 -65 535 79 653 325 96 200 96 398 0 598 -52 109 -168 229 -268 278
-164 79 -328 84 -472 14 l-58 -28 0 309 0 308 -190 0 -190 0 0 -895z m714 -39
c47 -20 93 -63 124 -115 24 -40 27 -56 27 -131 0 -68 -5 -93 -22 -126 -43 -80
-147 -144 -234 -144 -46 0 -133 38 -169 73 -52 50 -74 109 -74 197 0 57 5 86
22 120 60 124 201 178 326 126z"/>
<path d="M2610 12096 c-92 -27 -137 -50 -219 -112 -67 -50 -136 -135 -178
-217 -59 -118 -79 -301 -47 -437 49 -210 217 -390 429 -461 100 -34 279 -34
380 -1 197 66 349 213 423 410 33 90 42 248 18 342 -59 234 -234 415 -466 479
-103 29 -239 28 -340 -3z m299 -379 c57 -29 108 -89 126 -151 41 -136 -12
-266 -132 -326 -64 -32 -169 -34 -228 -3 -93 48 -145 136 -145 243 1 203 198
327 379 237z"/>
<path d="M1630 11485 l0 -615 185 0 185 0 0 615 0 615 -185 0 -185 0 0 -615z"/>
<path d="M394 10446 c-103 -38 -176 -105 -223 -205 l-26 -56 0 -845 0 -845 26
-55 c41 -85 99 -144 187 -187 l76 -38 805 -3 c593 -2 821 0 861 9 146 31 252
132 295 280 14 50 15 146 13 865 l-3 809 -32 67 c-40 84 -107 151 -193 192
l-65 31 -830 2 -830 2 -61 -23z"/>
<path d="M6623 10450 c-125 -45 -218 -142 -252 -265 -7 -27 -11 -292 -11 -845
0 -837 0 -844 41 -922 43 -84 136 -160 231 -190 56 -17 110 -18 861 -18 853 0
838 -1 933 48 53 27 131 106 158 161 47 92 47 108 44 956 l-3 800 -32 67 c-40
85 -106 151 -191 191 l-67 32 -830 2 c-787 2 -833 1 -882 -17z"/>
<path d="M3375 10446 c-69 -22 -100 -43 -161 -108 -142 -152 -212 -399 -201
-703 12 -312 91 -558 262 -816 62 -92 202 -248 296 -327 85 -73 193 -152 205
-152 13 0 403 242 404 250 0 3 -21 18 -47 35 -128 81 -298 240 -398 373 -50
67 -135 203 -135 216 0 3 338 6 750 6 413 0 750 -2 750 -5 0 -28 -158 -230
-251 -322 -139 -136 -270 -229 -744 -527 -487 -307 -642 -418 -780 -564 -99
-105 -148 -173 -199 -277 -85 -173 -81 -128 -81 -1010 0 -772 0 -781 22 -862
68 -256 239 -481 513 -676 97 -69 287 -177 310 -176 19 0 402 240 407 255 2 5
-15 20 -37 33 -85 48 -268 176 -345 241 -94 81 -183 170 -170 170 6 0 319 2
697 3 505 1 688 -1 688 -9 0 -19 -190 -195 -300 -278 -58 -43 -244 -171 -415
-284 -617 -408 -678 -452 -826 -590 -151 -141 -307 -363 -373 -528 -128 -320
-147 -725 -48 -1014 62 -180 159 -299 277 -341 52 -18 98 -19 988 -19 928 -1
934 -1 990 20 153 58 265 235 323 516 23 109 27 155 27 299 1 94 -5 206 -12
250 -51 325 -189 589 -424 817 -85 82 -247 204 -284 214 -17 5 -48 -10 -122
-57 -55 -35 -143 -91 -195 -124 -52 -33 -95 -65 -96 -70 0 -6 24 -25 53 -42
197 -118 384 -298 480 -464 51 -87 121 -79 -712 -79 -474 0 -742 4 -746 10
-17 27 168 242 299 349 128 104 505 357 850 570 138 85 387 253 461 310 249
194 402 401 478 646 21 69 22 85 25 800 4 766 1 829 -40 965 -76 245 -278 478
-589 675 -191 121 -244 148 -269 135 -42 -22 -368 -239 -374 -249 -3 -5 56
-48 133 -95 204 -126 411 -292 396 -317 -8 -12 -1345 -12 -1345 0 0 33 291
265 475 380 198 123 637 421 760 516 390 301 585 562 698 935 54 176 71 306
64 485 -11 303 -110 516 -277 594 l-55 26 -995 2 c-783 1 -1004 -1 -1035 -11z
m1794 -425 c53 -56 83 -218 62 -324 l-12 -57 -861 0 -861 0 7 71 c13 126 62
283 100 322 16 16 70 17 778 17 l760 0 27 -29z m141 -6771 c0 -80 -28 -199
-63 -270 l-32 -65 -777 -3 c-772 -2 -777 -2 -796 18 -33 35 -52 115 -52 215 0
51 3 107 6 124 l7 31 853 0 854 0 0 -50z"/>
<path d="M6633 7595 c-124 -38 -221 -137 -259 -261 -22 -72 -21 -1638 1 -1709
31 -103 112 -191 223 -243 l57 -27 835 0 835 0 60 24 c83 34 184 134 216 216
l24 60 0 831 0 831 -40 79 c-48 95 -124 162 -218 194 -59 20 -81 20 -876 19
-646 0 -825 -3 -858 -14z"/>
<path d="M415 7586 c-105 -33 -197 -113 -241 -209 l-29 -62 0 -845 0 -845 28
-58 c54 -110 157 -191 275 -216 68 -14 1549 -15 1636 -1 157 25 287 154 316
311 7 36 10 334 8 850 l-3 794 -28 59 c-36 78 -85 136 -145 175 -98 63 -67 61
-962 60 -628 0 -824 -3 -855 -13z"/>
<path d="M6629 4736 c-128 -48 -205 -122 -248 -240 -22 -58 -22 -63 -21 -872
0 -804 1 -815 22 -872 29 -79 79 -144 144 -188 111 -73 57 -69 959 -69 669 0
819 2 860 14 109 31 215 126 257 230 l23 56 3 809 c3 896 5 866 -62 970 -42
65 -95 112 -166 145 l-55 26 -840 2 c-674 1 -847 -1 -876 -11z"/>
<path d="M436 4729 c-109 -26 -215 -113 -265 -219 l-26 -55 0 -845 0 -845 29
-62 c32 -69 107 -148 172 -180 87 -44 91 -44 949 -41 l820 3 67 32 c85 40 151
106 191 191 l32 67 0 825 c0 774 -1 828 -18 878 -36 103 -143 209 -245 244
-45 15 -1643 22 -1706 7z"/>
<path d="M7030 2023 c-36 -18 -65 -43 -85 -71 -26 -38 -30 -52 -30 -112 0 -60
4 -74 30 -112 113 -161 374 -101 393 90 11 122 -72 216 -202 229 -42 4 -60 0
-106 -24z"/>
<path d="M5610 1808 c-52 -38 -134 -97 -182 -131 l-87 -62 -3 -75 -3 -75 -87
-3 -88 -3 0 -174 0 -175 90 0 90 0 0 -229 c0 -264 10 -313 81 -420 99 -149
303 -251 502 -251 l67 0 0 184 0 183 -69 6 c-102 8 -174 52 -200 120 -7 16
-11 108 -11 218 l0 189 140 0 139 0 3 175 3 175 -140 2 -140 3 -5 206 -5 206
-95 -69z"/>
<path d="M2184 1475 c-34 -7 -84 -25 -112 -39 l-52 -26 0 25 0 25 -187 0 -188
0 2 -592 c2 -326 3 -603 3 -615 l0 -23 185 0 185 0 0 328 c0 355 4 389 54 460
40 57 89 85 156 90 70 5 120 -10 166 -51 67 -58 68 -63 74 -462 l5 -360 188
-3 187 -2 0 334 c0 311 1 339 20 389 37 99 118 157 217 157 102 0 189 -74 212
-180 7 -31 11 -179 11 -375 l0 -325 186 0 185 0 -3 393 c-4 377 -5 395 -27
462 -72 218 -206 350 -399 391 -181 38 -382 -8 -505 -114 l-49 -42 -43 38
c-87 77 -241 133 -360 131 -27 0 -77 -7 -111 -14z"/>
<path d="M4295 1475 c-291 -64 -506 -363 -481 -670 14 -176 70 -300 191 -421
122 -122 245 -174 411 -174 85 0 190 25 229 54 29 22 45 19 45 -9 l0 -25 185
0 185 0 0 615 0 615 -185 0 -185 0 0 -25 c0 -14 -2 -25 -4 -25 -2 0 -26 11
-53 24 -106 53 -220 67 -338 41z m262 -386 c114 -55 169 -199 128 -335 -42
-143 -204 -214 -340 -150 -198 92 -206 384 -13 480 68 34 161 36 225 5z"/>
<path d="M6620 1474 c-30 -8 -74 -25 -97 -39 l-43 -24 0 25 0 24 -185 0 -185
0 0 -615 0 -615 184 0 185 0 3 352 c3 336 4 355 24 398 27 57 76 106 121 121
36 11 154 8 186 -6 16 -7 17 6 17 188 0 193 0 195 -22 201 -39 10 -131 5 -188
-10z"/>
<path d="M6940 845 l0 -615 185 0 185 0 0 615 0 615 -185 0 -185 0 0 -615z"/>
<path d="M7631 1174 c99 -158 176 -291 172 -298 -12 -20 -324 -478 -379 -558
-30 -42 -54 -79 -54 -82 0 -3 98 -6 218 -6 l217 0 105 165 c58 90 107 164 110
165 3 0 48 -66 100 -147 51 -82 100 -156 108 -165 14 -16 38 -18 230 -18 180
0 213 2 209 14 -3 8 -50 79 -105 158 -54 78 -151 220 -215 314 l-116 171 172
274 c95 151 176 280 180 287 7 9 -34 12 -190 12 l-198 0 -84 -140 c-47 -77
-87 -140 -90 -140 -3 1 -44 64 -91 140 l-84 140 -197 0 -197 0 179 -286z"/>
</g>
</svg>
