<svg version="1.2" xmlns="http://www.w3.org/2000/svg" viewBox="0 0 874 859" width="874" height="859">
	<title>logo</title>
	<style>
		.s0 { fill: var(--logo-color, #28593A) } 
	</style>
	<g>
		<path class="s0" d="m172.4-191.1c-5 2.3-11.2 9.3-12 13.8-1.7 8.8 1.8 17.3 9.2 22.3 2.8 1.8 5.3 2.5 10.3 2.8 7.8 0.4 12.3-1.2 17.1-6 4.2-4.1 6-8.5 6-14.4 0-14.6-16.7-24.8-30.6-18.5z"/>
		<path class="s0" d="m23-101.5v89.5h19 19v-2.4-2.5l4.3 2.4c2.3 1.3 6.9 3.1 10.2 3.9 24.7 6.5 53.5-7.9 65.3-32.5 9.6-20 9.6-39.8 0-59.8-5.2-10.9-16.8-22.9-26.8-27.8-16.4-7.9-32.8-8.4-47.2-1.4l-5.8 2.8v-30.9-30.8h-19-19zm71.4 3.9c4.7 2 9.3 6.3 12.4 11.5 2.4 4 2.7 5.6 2.7 13.1 0 6.8-0.5 9.3-2.2 12.6-4.3 8-14.7 14.4-23.4 14.4-4.6 0-13.3-3.8-16.9-7.3-5.2-5-7.4-10.9-7.4-19.7 0-5.7 0.5-8.6 2.2-12 6-12.4 20.1-17.8 32.6-12.6z"/>
		<path class="s0" d="m261-134.6c-9.2 2.7-13.7 5-21.9 11.2-6.7 5-13.6 13.5-17.8 21.7-5.9 11.8-7.9 30.1-4.7 43.7 4.9 21 21.7 39 42.9 46.1 10 3.4 27.9 3.4 38 0.1 19.7-6.6 34.9-21.3 42.3-41 3.3-9 4.2-24.8 1.8-34.2-5.9-23.4-23.4-41.5-46.6-47.9-10.3-2.9-23.9-2.8-34 0.3zm29.9 37.9c5.7 2.9 10.8 8.9 12.6 15.1 4.1 13.6-1.2 26.6-13.2 32.6-6.4 3.2-16.9 3.4-22.8 0.3-9.3-4.8-14.5-13.6-14.5-24.3 0.1-20.3 19.8-32.7 37.9-23.7z"/>
		<path class="s0" d="m163-73.5v61.5h18.5 18.5v-61.5-61.5h-18.5-18.5z"/>
		<path class="s0" d="m39.4 30.4c-10.3 3.8-17.6 10.5-22.3 20.5l-2.6 5.6v84.5 84.5l2.6 5.5c4.1 8.5 9.9 14.4 18.7 18.7l7.6 3.8 80.5 0.3c59.3 0.2 82.1 0 86.1-0.9 14.6-3.1 25.2-13.2 29.5-28 1.4-5 1.5-14.6 1.3-86.5l-0.3-80.9-3.2-6.7c-4-8.4-10.7-15.1-19.3-19.2l-6.5-3.1-83-0.2-83-0.2z"/>
		<path class="s0" d="m662.3 30c-12.5 4.5-21.8 14.2-25.2 26.5-0.7 2.7-1.1 29.2-1.1 84.5 0 83.7 0 84.4 4.1 92.2 4.3 8.4 13.6 16 23.1 19 5.6 1.7 11 1.8 86.1 1.8 85.3 0 83.8 0.1 93.3-4.8 5.3-2.7 13.1-10.6 15.8-16.1 4.7-9.2 4.7-10.8 4.4-95.6l-0.3-80-3.2-6.7c-4-8.5-10.6-15.1-19.1-19.1l-6.7-3.2-83-0.2c-78.7-0.2-83.3-0.1-88.2 1.7z"/>
		<path class="s0" d="m337.5 30.4c-6.9 2.2-10 4.3-16.1 10.8-14.2 15.2-21.2 39.9-20.1 70.3 1.2 31.2 9.1 55.8 26.2 81.6 6.2 9.2 20.2 24.8 29.6 32.7 8.5 7.3 19.3 15.2 20.5 15.2 1.3 0 40.3-24.2 40.4-25 0-0.3-2.1-1.8-4.7-3.5-12.8-8.1-29.8-24-39.8-37.3-5-6.7-13.5-20.3-13.5-21.6 0-0.3 33.8-0.6 75-0.6 41.3 0 75 0.2 75 0.5 0 2.8-15.8 23-25.1 32.2-13.9 13.6-27 22.9-74.4 52.7-48.7 30.7-64.2 41.8-78 56.4-9.9 10.5-14.8 17.3-19.9 27.7-8.5 17.3-8.1 12.8-8.1 101 0 77.2 0 78.1 2.2 86.2 6.8 25.6 23.9 48.1 51.3 67.6 9.7 6.9 28.7 17.7 31 17.6 1.9 0 40.2-24 40.7-25.5 0.2-0.5-1.5-2-3.7-3.3-8.5-4.8-26.8-17.6-34.5-24.1-9.4-8.1-18.3-17-17-17 0.6 0 31.9-0.2 69.7-0.3 50.5-0.1 68.8 0.1 68.8 0.9 0 1.9-19 19.5-30 27.8-5.8 4.3-24.4 17.1-41.5 28.4-61.7 40.8-67.8 45.2-82.6 59-15.1 14.1-30.7 36.3-37.3 52.8-12.8 32-14.7 72.5-4.8 101.4 6.2 18 15.9 29.9 27.7 34.1 5.2 1.8 9.8 1.9 98.8 1.9 92.8 0.1 93.4 0.1 99-2 15.3-5.8 26.5-23.5 32.3-51.6 2.3-10.9 2.7-15.5 2.7-29.9 0.1-9.4-0.5-20.6-1.2-25-5.1-32.5-18.9-58.9-42.4-81.7-8.5-8.2-24.7-20.4-28.4-21.4-1.7-0.5-4.8 1-12.2 5.7-5.5 3.5-14.3 9.1-19.5 12.4-5.2 3.3-9.5 6.5-9.6 7 0 0.6 2.4 2.5 5.3 4.2 19.7 11.8 38.4 29.8 48 46.4 5.1 8.7 12.1 7.9-71.2 7.9-47.4 0-74.2-0.4-74.6-1-1.7-2.7 16.8-24.2 29.9-34.9 12.8-10.4 50.5-35.7 85-57 13.8-8.5 38.7-25.3 46.1-31 24.9-19.4 40.2-40.1 47.8-64.6 2.1-6.9 2.2-8.5 2.5-80 0.4-76.6 0.1-82.9-4-96.5-7.6-24.5-27.8-47.8-58.9-67.5-19.1-12.1-24.4-14.8-26.9-13.5-4.2 2.2-36.8 23.9-37.4 24.9-0.3 0.5 5.6 4.8 13.3 9.5 20.4 12.6 41.1 29.2 39.6 31.7-0.8 1.2-134.5 1.2-134.5 0 0-3.3 29.1-26.5 47.5-38 19.8-12.3 63.7-42.1 76-51.6 39-30.1 58.5-56.2 69.8-93.5 5.4-17.6 7.1-30.6 6.4-48.5-1.1-30.3-11-51.6-27.7-59.4l-5.5-2.6-99.5-0.2c-78.3-0.1-100.4 0.1-103.5 1.1zm179.4 42.5c5.3 5.6 8.3 21.8 6.2 32.4l-1.2 5.7h-86.1-86.1l0.7-7.1c1.3-12.6 6.2-28.3 10-32.2 1.6-1.6 7-1.7 77.8-1.7h76zm14.1 677.1c0 8-2.8 19.9-6.3 27l-3.2 6.5-77.7 0.3c-77.2 0.2-77.7 0.2-79.6-1.8-3.3-3.5-5.2-11.5-5.2-21.5 0-5.1 0.3-10.7 0.6-12.4l0.7-3.1h85.3 85.4z"/>
		<path class="s0" d="m663.3 315.5c-12.4 3.8-22.1 13.7-25.9 26.1-2.2 7.2-2.1 163.8 0.1 170.9 3.1 10.3 11.2 19.1 22.3 24.3l5.7 2.7h83.5 83.5l6-2.4c8.3-3.4 18.4-13.4 21.6-21.6l2.4-6v-83.1-83.1l-4-7.9c-4.8-9.5-12.4-16.2-21.8-19.4-5.9-2-8.1-2-87.6-1.9-64.6 0-82.5 0.3-85.8 1.4z"/>
		<path class="s0" d="m41.5 316.4c-10.5 3.3-19.7 11.3-24.1 20.9l-2.9 6.2v84.5 84.5l2.8 5.8c5.4 11 15.7 19.1 27.5 21.6 6.8 1.4 154.9 1.5 163.6 0.1 15.7-2.5 28.7-15.4 31.6-31.1 0.7-3.6 1-33.4 0.8-85l-0.3-79.4-2.8-5.9c-3.6-7.8-8.5-13.6-14.5-17.5-9.8-6.3-6.7-6.1-96.2-6-62.8 0-82.4 0.3-85.5 1.3z"/>
		<path class="s0" d="m662.9 601.4c-12.8 4.8-20.5 12.2-24.8 24-2.2 5.8-2.2 6.3-2.1 87.2 0 80.4 0.1 81.5 2.2 87.2 2.9 7.9 7.9 14.4 14.4 18.8 11.1 7.3 5.7 6.9 95.9 6.9 66.9 0 81.9-0.2 86-1.4 10.9-3.1 21.5-12.6 25.7-23l2.3-5.6 0.3-80.9c0.3-89.6 0.5-86.6-6.2-97-4.2-6.5-9.5-11.2-16.6-14.5l-5.5-2.6-84-0.2c-67.4-0.1-84.7 0.1-87.6 1.1z"/>
		<path class="s0" d="m43.6 602.1c-10.9 2.6-21.5 11.3-26.5 21.9l-2.6 5.5v84.5 84.5l2.9 6.2c3.2 6.9 10.7 14.8 17.2 18 8.7 4.4 9.1 4.4 94.9 4.1l82-0.3 6.7-3.2c8.5-4 15.1-10.6 19.1-19.1l3.2-6.7v-82.5c0-77.4-0.1-82.8-1.8-87.8-3.6-10.3-14.3-20.9-24.5-24.4-4.5-1.5-164.3-2.2-170.6-0.7z"/>
		<path class="s0" d="m703 872.7c-3.6 1.8-6.5 4.3-8.5 7.1-2.6 3.8-3 5.2-3 11.2 0 6 0.4 7.4 3 11.2 11.3 16.1 37.4 10.1 39.3-9 1.1-12.2-7.2-21.6-20.2-22.9-4.2-0.4-6 0-10.6 2.4z"/>
		<path class="s0" d="m561 894.2c-5.2 3.8-13.4 9.7-18.2 13.1l-8.7 6.2-0.3 7.5-0.3 7.5-8.7 0.3-8.8 0.3v17.4 17.5h9 9v22.9c0 26.4 1 31.3 8.1 42 9.9 14.9 30.3 25.1 50.2 25.1h6.7v-18.4-18.3l-6.9-0.6c-10.2-0.8-17.4-5.2-20-12-0.7-1.6-1.1-10.8-1.1-21.8v-18.9h14 13.9l0.3-17.5 0.3-17.5-14-0.2-14-0.3-0.5-20.6-0.5-20.6z"/>
		<path class="s0" d="m218.4 927.5c-3.4 0.7-8.4 2.5-11.2 3.9l-5.2 2.6v-2.5-2.5h-18.7-18.8l0.2 59.2c0.2 32.6 0.3 60.3 0.3 61.5v2.3h18.5 18.5v-32.8c0-35.5 0.4-38.9 5.4-46 4-5.7 8.9-8.5 15.6-9 7-0.5 12 1 16.6 5.1 6.7 5.8 6.8 6.3 7.4 46.2l0.5 36 18.8 0.3 18.7 0.2v-33.4c0-31.1 0.1-33.9 2-38.9 3.7-9.9 11.8-15.7 21.7-15.7 10.2 0 18.9 7.4 21.2 18 0.7 3.1 1.1 17.9 1.1 37.5v32.5h18.6 18.5l-0.3-39.3c-0.4-37.7-0.5-39.5-2.7-46.2-7.2-21.8-20.6-35-39.9-39.1-18.1-3.8-38.2 0.8-50.5 11.4l-4.9 4.2-4.3-3.8c-8.7-7.7-24.1-13.3-36-13.1-2.7 0-7.7 0.7-11.1 1.4z"/>
		<path class="s0" d="m429.5 927.5c-29.1 6.4-50.6 36.3-48.1 67 1.4 17.6 7 30 19.1 42.1 12.2 12.2 24.5 17.4 41.1 17.4 8.5 0 19-2.5 22.9-5.4 2.9-2.2 4.5-1.9 4.5 0.9v2.5h18.5 18.5v-61.5-61.5h-18.5-18.5v2.5c0 1.4-0.2 2.5-0.4 2.5-0.2 0-2.6-1.1-5.3-2.4-10.6-5.3-22-6.7-33.8-4.1zm26.2 38.6c11.4 5.5 16.9 19.9 12.8 33.5-4.2 14.3-20.4 21.4-34 15-19.8-9.2-20.6-38.4-1.3-48 6.8-3.4 16.1-3.6 22.5-0.5z"/>
		<path class="s0" d="m662 927.6c-3 0.8-7.4 2.5-9.7 3.9l-4.3 2.4v-2.5-2.4h-18.5-18.5v61.5 61.5h18.4 18.5l0.3-35.2c0.3-33.6 0.4-35.5 2.4-39.8 2.7-5.7 7.6-10.6 12.1-12.1 3.6-1.1 15.4-0.8 18.6 0.6 1.6 0.7 1.7-0.6 1.7-18.8 0-19.3 0-19.5-2.2-20.1-3.9-1-13.1-0.5-18.8 1z"/>
		<path class="s0" d="m694 990.5v61.5h18.5 18.5v-61.5-61.5h-18.5-18.5z"/>
		<path class="s0" d="m763.1 957.6c9.9 15.8 17.6 29.1 17.2 29.8-1.2 2-32.4 47.8-37.9 55.8-3 4.2-5.4 7.9-5.4 8.2 0 0.3 9.8 0.6 21.8 0.6h21.7l10.5-16.5c5.8-9 10.7-16.4 11-16.5 0.3 0 4.8 6.6 10 14.7 5.1 8.2 10 15.6 10.8 16.5 1.4 1.6 3.8 1.8 23 1.8 18 0 21.3-0.2 20.9-1.4-0.3-0.8-5-7.9-10.5-15.8-5.4-7.8-15.1-22-21.5-31.4l-11.6-17.1 17.2-27.4c9.5-15.1 17.6-28 18-28.7 0.7-0.9-3.4-1.2-19-1.2h-19.8l-8.4 14c-4.7 7.7-8.7 14-9 14-0.3-0.1-4.4-6.4-9.1-14l-8.4-14h-19.7-19.7z"/>
	</g>
</svg>